# AST/ASF file generated using VICON BodyLanguage
# -----------------------------------------------
:version 1.10
:name VICON
:units
  mass 1.0
  length 0.45
  angle deg
:documentation
   .ast/.asf automatically generated from VICON data using
   VICON BodyBuilder and BodyLanguage model FoxedUp or BRILLIANT.MOD
:root
   order TX TY TZ RX RY RZ
   axis XYZ
   position 0 0 0  
   orientation 0 0 0 
:bonedata
  begin
     id 1 
     name lhipjoint
     direction 0.700308 -0.549349 0.455834 
     length 2.59063 
     axis 0 0 0  XYZ
  end
  begin
     id 2 
     name lfemur
     direction 0.34202 -0.939693 0  
     length 6.31066  
     axis 0 0 20  XYZ
    dof rx ry rz
    limits (-160.0 20.0)
           (-70.0 70.0)
           (-60.0 70.0)
  end
  begin
     id 3 
     name ltibia
     direction 0.34202 -0.939693 0   
     length 7.36093   
     axis 0 0 20   XYZ
    dof rx
    limits (-10.0 170.0)
  end
  begin
     id 4 
     name lfoot
     direction 0.0905332 -0.248738 0.96433   
     length 2.0233   
     axis -90 7.62852e-016 20   XYZ
    dof rx rz
    limits (-45.0 90.0)
           (-70.0 20.0)
  end
  begin
     id 5 
     name ltoes
     direction 1.53573e-011 -4.21855e-011 1   
     length 1.01524   
     axis -90 7.62852e-016 20   XYZ
    dof rx
    limits (-90.0 20.0)
  end
  begin
     id 6 
     name rhipjoint
     direction -0.61416 -0.607328 0.503944   
     length 2.34332  
     axis 0 0 0  XYZ 
  end
  begin
     id 7 
     name rfemur
     direction -0.34202 -0.939693 0   
     length 6.58548   
     axis 0 0 -20   XYZ
    dof rx ry rz
    limits (-160.0 20.0)
           (-70.0 70.0)
           (-70.0 60.0)
  end
  begin
     id 8 
     name rtibia
     direction -0.34202 -0.939693 0   
     length 7.20707   
     axis 0 0 -20   XYZ
    dof rx
    limits (-10.0 170.0)
 end
 begin
     id 9 
     name rfoot
     direction -0.136772 -0.375778 0.916561   
     length 1.92184  
     axis -90 -7.62852e-016 -20   XYZ
    dof rx rz
    limits (-45.0 90.0)
           (-20.0 70.0)
  end
  begin
     id 10 
     name rtoes
     direction -1.53535e-011 -4.21828e-011 1   
     length 0.951089   
     axis -90 -7.62852e-016 -20   XYZ
    dof rx
    limits (-90.0 20.0)
  end
  begin
     id 11 
     name lowerback
     direction -0.0444974 0.988086 -0.147332   
     length 1.9609   
     axis 0 0 0   XYZ
    dof rx ry rz
    limits (-20.0 45.0)
           (-30.0 30.0)
           (-30.0 30.0)
  end
  begin
     id 12 
     name upperback
     direction 0.00613146 0.999513 0.0306081   
     length 1.94944   
     axis 0 0 0   XYZ
    dof rx ry rz
    limits (-20.0 45.0)
           (-30.0 30.0)
           (-30.0 30.0)
  end
  begin
     id 13 
     name thorax
     direction 0.0254621 0.994518 0.101418   
     length 2.0119   
     axis 0 0 0   XYZ
    dof rx ry rz
    limits (-20.0 45.0)
           (-30.0 30.0)
           (-30.0 30.0)
  end
  begin
     id 14 
     name lowerneck
     direction 0.0168698 0.977854 0.208608   
     length 1.6375   
     axis 0 0 0   XYZ
    dof rx ry rz
    limits (-20.0 45.0)
           (-30.0 30.0)
           (-30.0 30.0)
  end
  begin
     id 15 
     name upperneck
     direction -0.0283988 0.989338 -0.142843   
     length 1.6851   
     axis 0 0 0   XYZ
    dof rx ry rz
    limits (-20.0 45.0)
           (-30.0 30.0)
           (-30.0 30.0)
  end
  begin
     id 16
     name head
     direction -0.0129422 0.99741 -0.0707489  
     length 1.69029  
     axis 0 0 0   XYZ
    dof rx ry rz
    limits (-20.0 45.0)
           (-30.0 30.0)
           (-30.0 30.0)
  end
  begin
     id 17 
     name lclavicle
     direction 0.820295 0.564628 -0.0911715  
     length 3.16484  
     axis 0 0 0   XYZ
    dof ry rz
    limits (-20.0 10.0)
           (0.0 20.0)
  end
  begin
     id 18 
     name lhumerus
     direction 1 -4.48969e-011 1.00186e-027   
     length 5.17853   
     axis 180 -30 -90   XYZ
    dof rx ry rz
    limits (-60.0 90.0)
           (-90.0 90.0)
           (-90.0 90.0)
  end
  begin
     id 19
     name lradius
     direction 1 -4.48966e-011 -1.52922e-027   
     length 3.40399   
     axis 180 -30 -90   XYZ
    dof rx
    limits (-10.0 170.0)
  end
  begin
     id 20
     name lwrist
     direction 1 -4.48981e-011 -3.80893e-027   
     length 1.70199   
     axis 1.1049e-015 90 90   XYZ
    dof ry
    limits (-180.0 0.0)
 end
  begin
     id 21 
     name lhand
     direction 1 -4.48957e-011 -7.61786e-027   
     length 0.708964   
     axis 4.86085e-015 90 90   XYZ
    dof rx rz
    limits (-90.0 90.0)
           (-45.0 45.0)
  end
  begin
     id 22 
     name lfingers
     direction 1 -4.48929e-011 -1.52357e-026   
     length 0.571585   
     axis 9.7217e-015 90 90   XYZ
    dof rx
    limits (0.0 90.0)
  end
  begin
     id 23
     name lthumb
     direction 0.707107 -6.34905e-011 0.707107   
     length 0.820685   
     axis -90 45 2.85299e-015   XYZ
    dof rx rz
    limits (-45.0 45.0)
           (-45.0 45.0)
  end
  begin
     id 24 
     name rclavicle
     direction -0.858602 0.463947 -0.218075   
     length 3.35137  
     axis 0 0 0   XYZ 
    dof ry rz
    limits (-10.0 20.0)
           (-20.0 0.0)
  end
  begin
     id 25 
     name rhumerus
     direction -1 -4.48969e-011 -1.98511e-027  
     length 5.42351   
     axis 180 30 90   XYZ
    dof rx ry rz
    limits (-90.0 60.0)
           (-90.0 90.0)
           (-90.0 90.0)
  end
  begin
     id 26 
     name rradius
     direction -1 -4.48961e-011 -2.82624e-027   
     length 3.42066   
     axis 180 30 90   XYZ
    dof rx
    limits (-10.0 170.0)
  end
  begin
     id 27 
     name rwrist
     direction -1 -4.48966e-011 -3.80893e-027   
     length 1.71033   
     axis 1.1049e-015 -90 -90   XYZ
    dof ry
    limits (-180.0 0.0)
  end
  begin
     id 28
     name rhand
     direction -1 -4.48964e-011 -7.61786e-027   
     length 0.743608   
     axis 4.86085e-015 -90 -90   XYZ
    dof rx rz
    limits (-90.0 90.0)
           (-45.0 45.0)
  end
  begin
     id 29
     name rfingers
     direction -1 -4.48961e-011 -1.52357e-026   
     length 0.599516   
     axis 9.7217e-015 -90 -90   XYZ
    dof rx
    limits (0.0 90.0)
  end
  begin
     id 30
     name rthumb
     direction -0.707107 -6.34913e-011 0.707107   
     length 0.860789   
     axis -90 -45 -2.85299e-015   XYZ
    dof rx rz
    limits (-45.0 45.0)
           (-45.0 45.0)
  end
:hierarchy
  begin
    root lhipjoint rhipjoint lowerback
    lhipjoint lfemur
    lfemur ltibia
    ltibia lfoot
    lfoot ltoes
    rhipjoint rfemur
    rfemur rtibia
    rtibia rfoot
    rfoot rtoes
    lowerback upperback
    upperback thorax
    thorax lowerneck lclavicle rclavicle
    lowerneck upperneck
    upperneck head
    lclavicle lhumerus
    lhumerus lradius
    lradius lwrist
    lwrist lhand lthumb
    lhand lfingers
    rclavicle rhumerus
    rhumerus rradius
    rradius rwrist
    rwrist rhand rthumb
    rhand rfingers
  end

#!OML:ASF E:\mmandel\Project 1\Capture day 1\Session 2\Subject.ASF
:FULLY-SPECIFIED
:DEGREES
690
root 3.72553 7.08846 0.439878 46.5449 60.0705 -295.947
lowerback 37.6573 -3.92051 -0.359754
upperback 12.6283 -3.37911 1.07065
thorax -4.44214 -1.00807 2.45544
lowerneck -10.6134 3.03411 2.36139
upperneck 3.68161 5.16562 -16.5165
head 3.39158 2.03948 -5.12658
rclavicle 3.02153e-014 -7.31528e-014
rhumerus -161.671 -46.6338 112.768
rradius 9.98534
rwrist 114.551
rhand -18.4434 43.5293
rfingers 7.12502
rthumb 7.84238 13.6947
lclavicle 3.02153e-014 -7.31528e-014
lhumerus -2.37426 -25.7009 47.6075
lradius 29.2659
lwrist 25.4331
lhand -18.8001 -22.4752
lfingers 7.12502
lthumb 7.49814 7.37194
rfemur -103.147 -27.9579 20.2685
rtibia 146.373
rfoot -25.2182 7.42827
rtoes 8.14623
lfemur -11.4984 74.1087 46.403
ltibia 141.319
lfoot 12.6369 -61.376
ltoes 23.2281
691
root 3.79383 7.08629 0.391689 46.3324 60.1384 -296.382
lowerback 37.7029 -3.95707 -0.340987
upperback 12.5341 -3.41072 1.25521
thorax -4.55016 -1.03301 2.65489
lowerneck -10.6248 3.12418 2.40642
upperneck 3.72351 5.30138 -16.6521
head 3.42563 2.10029 -5.16704
rclavicle -2.22639e-014 4.45278e-014
rhumerus -161.883 -47.4613 113.376
rradius 10.2811
rwrist 113.85
rhand -17.6166 42.9495
rfingers 7.12502
rthumb 8.64031 13.1463
lclavicle -2.22639e-014 4.45278e-014
lhumerus -2.14818 -25.691 47.3219
lradius 29.6841
lwrist 25.4837
lhand -19.1068 -22.557
lfingers 7.12502
lthumb 7.20202 7.30049
rfemur -103.594 -28.743 20.0231
rtibia 146.795
rfoot -25.2804 8.13367
rtoes 7.22915
lfemur -8.38768 74.1315 49.7144
ltibia 141.692
lfoot 11.6937 -62.0068
ltoes 22.0195
692
root 3.86301 7.08235 0.350386 45.9383 60.3097 -296.853
lowerback 37.7294 -4.03797 -0.216362
upperback 12.5543 -3.45093 1.38584
thorax -4.53417 -1.05318 2.74239
lowerneck -10.7562 3.18472 2.62181
upperneck 3.79291 5.38184 -16.8341
head 3.48885 2.12674 -5.254
rclavicle -1.90833e-014 2.8625e-014
rhumerus -163.093 -45.514 115.15
rradius 10.6258
rwrist 116.009
rhand -17.2188 42.6145
rfingers 7.12502
rthumb 9.02418 12.8275
lclavicle -1.90833e-014 2.8625e-014
lhumerus -1.74563 -25.3038 47.0103
lradius 29.913
lwrist 25.1119
lhand -19.2761 -22.7568
lfingers 7.12502
lthumb 7.0386 7.1062
rfemur -103.914 -29.7292 19.8646
rtibia 147.33
rfoot -25.442 9.06379
rtoes 6.40125
lfemur -3.96202 73.8947 54.4826
ltibia 142.023
lfoot 12.9477 -62.5553
ltoes 22.0017
693
root 3.93266 7.07265 0.310133 45.4628 60.4917 -297.401
lowerback 37.6551 -4.15276 -0.0876588
upperback 12.6594 -3.53007 1.49202
thorax -4.3916 -1.09065 2.81056
lowerneck -11.018 3.25549 2.74317
upperneck 3.84674 5.48251 -16.9348
head 3.56658 2.15953 -5.29679
rclavicle 1.90833e-014 6.36111e-014
rhumerus -165.435 -41.0651 118.225
rradius 11.2189
rwrist 120.815
rhand -16.8859 42.5231
rfingers 7.12502
rthumb 9.34548 12.7502
lclavicle 1.90833e-014 6.36111e-014
lhumerus -1.22649 -25.3104 46.5204
lradius 30.1605
lwrist 25.3465
lhand -19.4486 -22.9062
lfingers 7.12502
lthumb 6.87215 6.96231
rfemur -103.917 -30.9922 19.6714
rtibia 147.804
rfoot -25.7688 10.4122
rtoes 6.73012
lfemur 1.5083 73.5066 60.4749
ltibia 142.427
lfoot 14.669 -63.1898
ltoes 22.9169
694
root 4.00408 7.05748 0.268071 44.9002 60.7042 -298.07
lowerback 37.6129 -4.24133 0.199177
upperback 12.7242 -3.5305 1.54747
thorax -4.31803 -1.08457 2.71791
lowerneck -11.1341 3.24417 2.93587
upperneck 3.88202 5.45319 -17.0341
head 3.60246 2.13618 -5.36229
rclavicle 0 -1.27222e-014
rhumerus -167.124 -36.7112 120.646
rradius 11.9136
rwrist 125.124
rhand -16.4515 42.5937
rfingers 7.12502
rthumb 9.76452 12.8401
lclavicle 0 -1.27222e-014
lhumerus -0.564016 -25.6818 45.8686
lradius 30.5666
lwrist 25.7964
lhand -19.8243 -23.038
lfingers 7.12502
lthumb 6.50943 6.84201
rfemur -103.951 -32.0994 19.6261
rtibia 148.199
rfoot -25.9866 11.2422
rtoes 6.22992
lfemur 6.99986 72.9433 66.7139
ltibia 142.912
lfoot 16.389 -63.7839
ltoes 24.1908
695
root 4.07353 7.03583 0.224591 44.5124 60.8855 -298.532
lowerback 37.594 -4.30573 0.368855
upperback 12.7366 -3.54515 1.61263
thorax -4.30244 -1.08987 2.70311
lowerneck -11.1984 3.22522 2.9207
upperneck 4.09537 5.45417 -16.9855
head 3.67476 2.12267 -5.34455
rclavicle 3.81667e-014 -5.40694e-014
rhumerus -167.551 -35.59 121.54
rradius 12.2925
rwrist 126.139
rhand -15.8595 42.5253
rfingers 7.12502
rthumb 10.3356 12.7993
lclavicle 3.81667e-014 -5.40694e-014
lhumerus 0.0230591 -25.388 45.5174
lradius 30.7616
lwrist 25.4863
lhand -20.0506 -23.2785
lfingers 7.12502
lthumb 6.291 6.60806
rfemur -104.273 -33.1889 19.6089
rtibia 148.633
rfoot -25.9909 11.7954
rtoes 6.13916
lfemur 10.6093 72.3434 70.9252
ltibia 143.366
lfoot 18.7112 -64.136
ltoes 25.4761
696
root 4.138 7.0088 0.182695 44.2919 61.0609 -298.746
lowerback 37.6343 -4.34813 0.307822
upperback 12.7645 -3.60084 1.73275
thorax -4.27276 -1.12112 2.88105
lowerneck -11.1922 3.25879 2.90388
upperneck 4.08951 5.50924 -17.0572
head 3.68018 2.14793 -5.36021
rclavicle 2.22639e-014 2.22639e-014
rhumerus -168.359 -33.6197 122.866
rradius 12.7716
rwrist 128.398
rhand -15.5026 42.554
rfingers 7.12502
rthumb 10.68 12.8455
lclavicle 2.22639e-014 2.22639e-014
lhumerus 0.595656 -24.9498 45.2768
lradius 30.8862
lwrist 25.2814
lhand -20.1265 -23.3308
lfingers 7.12502
lthumb 6.21769 6.55797
rfemur -104.643 -34.3921 19.4676
rtibia 149.074
rfoot -25.9135 12.6928
rtoes 6.78557
lfemur 12.4961 71.8478 73.3621
ltibia 143.85
lfoot 17.5607 -65.0255
ltoes 23.9866
697
root 4.20295 6.97993 0.147859 44.1088 61.1719 -298.963
lowerback 37.7521 -4.30607 0.202843
upperback 12.7436 -3.57683 1.78571
thorax -4.32695 -1.11367 2.98684
lowerneck -11.1543 3.26985 3.20238
upperneck 3.98015 5.47827 -17.2313
head 3.6522 2.13766 -5.46849
rclavicle 3.18055e-015 4.77083e-014
rhumerus -169.396 -30.1345 124.513
rradius 13.513
rwrist 132.109
rhand -15.0175 42.7532
rfingers 7.12502
rthumb 11.1478 13.0693
lclavicle 3.18055e-015 4.77083e-014
lhumerus 1.33428 -24.868 44.7713
lradius 31.168
lwrist 25.5683
lhand -19.8343 -23.509
lfingers 7.12502
lthumb 6.4998 6.37126
rfemur -105.123 -35.5199 19.3675
rtibia 149.563
rfoot -25.8675 13.5666
rtoes 5.72384
lfemur 14.399 71.3623 75.8518
ltibia 144.356
lfoot 16.136 -65.7787
ltoes 22.782
698
root 4.27545 6.94669 0.120295 44.0124 61.2041 -299.208
lowerback 37.6506 -4.20606 -0.037694
upperback 12.7203 -3.54476 1.85416
thorax -4.30518 -1.11298 3.16986
lowerneck -11.1639 3.31834 3.24386
upperneck 4.03212 5.54565 -17.2415
head 3.67796 2.16732 -5.47372
rclavicle 1.01778e-013 -6.67916e-014
rhumerus -169.699 -29.5808 125.157
rradius 13.8492
rwrist 132.767
rhand -14.3357 42.1926
rfingers 7.12502
rthumb 11.8054 12.5453
lclavicle 1.01778e-013 -6.67916e-014
lhumerus 1.89156 -24.9516 44.3055
lradius 31.5535
lwrist 25.7718
lhand -19.6985 -23.888
lfingers 7.12502
lthumb 6.63087 5.9882
rfemur -105.859 -36.6765 19.4477
rtibia 150.154
rfoot -25.8715 14.237
rtoes 4.30931
lfemur 17.173 70.7331 79.1894
ltibia 144.829
lfoot 18.1686 -66.1533
ltoes 24.5779
699
root 4.34928 6.91334 0.0896248 43.6939 61.4074 -299.75
lowerback 37.3373 -4.20022 -0.0467133
upperback 12.7926 -3.54514 1.96256
thorax -4.11665 -1.1241 3.27765
lowerneck -11.2152 3.38101 3.08761
upperneck 3.98679 5.65317 -17.2576
head 3.68142 2.21872 -5.44323
rclavicle 6.04305e-014 -1.24042e-013
rhumerus -169.911 -30.1015 125.488
rradius 13.9848
rwrist 132.262
rhand -14.0296 40.7164
rfingers 7.12502
rthumb 12.1005 11.0863
lclavicle 6.04305e-014 -1.24042e-013
lhumerus 2.3528 -25.2437 43.8378
lradius 32.0855
lwrist 26.1084
lhand -20.0405 -24.3392
lfingers 7.12502
lthumb 6.30075 5.5471
rfemur -106.517 -37.6813 19.715
rtibia 150.699
rfoot -25.9078 14.7271
rtoes 3.85705
lfemur 20.0309 70.0392 82.9844
ltibia 145.406
lfoot 17.2449 -67.1831
ltoes 24.032
700
root 4.41756 6.88206 0.0555332 43.0185 61.8127 -300.588
lowerback 37.2573 -4.26746 0.232442
upperback 12.8345 -3.5221 2.08266
thorax -4.05294 -1.11057 3.24815
lowerneck -11.118 3.38428 2.99151
upperneck 3.80484 5.64324 -17.24
head 3.60647 2.22801 -5.4223
rclavicle -9.22361e-014 6.99722e-014
rhumerus -170.499 -28.8135 126.31
rradius 14.4496
rwrist 133.538
rhand -13.7703 39.825
rfingers 7.12502
rthumb 12.3506 10.2097
lclavicle -9.22361e-014 6.99722e-014
lhumerus 2.93397 -25.4084 43.3007
lradius 32.6569
lwrist 26.8894
lhand -20.0166 -25.0234
lfingers 7.12502
lthumb 6.32378 4.86225
rfemur -106.867 -38.4879 20.0589
rtibia 151.123
rfoot -25.8995 15.1878
rtoes 3.87417
lfemur 22.3375 69.3945 86.6114
ltibia 146.094
lfoot 11.2502 -68.5942
ltoes 20.1222
701
root 4.48365 6.84783 0.0206484 42.5859 62.2035 -301.12
lowerback 37.2593 -4.35495 0.464739
upperback 12.8334 -3.54089 2.16191
thorax -4.06096 -1.11547 3.21799
lowerneck -11.0147 3.41012 2.98358
upperneck 3.66628 5.66169 -17.2747
head 3.55084 2.2485 -5.43102
rclavicle 4.6118e-014 -9.54166e-015
rhumerus -170.015 -30.9546 125.851
rradius 14.2296
rwrist 131.345
rhand -13.1448 39.2137
rfingers 7.12502
rthumb 12.9536 9.63575
lclavicle 4.6118e-014 -9.54166e-015
lhumerus 3.56521 -25.9942 42.7297
lradius 33.1563
lwrist 26.7518
lhand -21.0606 -24.5879
lfingers 7.12502
lthumb 5.31585 5.3254
rfemur -107.375 -39.5916 20.3525
rtibia 151.6
rfoot -25.819 15.8993
rtoes 4.04514
lfemur 24.4636 68.6706 89.8611
ltibia 146.754
lfoot 6.94137 -69.4799
ltoes 17.9085
702
root 4.54446 6.81044 -0.0129334 42.1724 62.6243 -301.566
lowerback 37.4035 -4.42411 0.682528
upperback 12.8046 -3.53435 2.23304
thorax -4.14699 -1.10576 3.18326
lowerneck -11.2623 3.47608 3.00609
upperneck 3.81839 5.77987 -17.3159
head 3.65306 2.28601 -5.43694
rclavicle -6.04305e-014 1.11319e-013
rhumerus -168.112 -37.0694 123.7
rradius 13.3083
rwrist 125.038
rhand -12.2204 37.9278
rfingers 7.12502
rthumb 13.8447 8.40852
lclavicle -6.04305e-014 1.11319e-013
lhumerus 4.35109 -26.3084 42.2077
lradius 33.4606
lwrist 26.5016
lhand -21.1625 -24.4825
lfingers 7.12502
lthumb 5.21746 5.43328
rfemur -107.801 -40.9214 20.668
rtibia 152.139
rfoot -25.8665 16.6542
rtoes 4.39708
lfemur 26.5086 67.5258 93.2583
ltibia 147.454
lfoot 7.32119 -70.2998
ltoes 18.7194
703
root 4.60251 6.76994 -0.0430608 41.6116 63.1344 -302.098
lowerback 37.6317 -4.50765 0.911898
upperback 12.7661 -3.53274 2.32286
thorax -4.26995 -1.09734 3.16705
lowerneck -11.3314 3.51495 2.99921
upperneck 3.86739 5.83783 -17.2762
head 3.68371 2.30958 -5.41811
rclavicle -2.06736e-014 0
rhumerus -167.394 -38.7871 123.104
rradius 13.1589
rwrist 123.583
rhand -11.5794 37.3163
rfingers 7.12502
rthumb 14.4623 7.84027
lclavicle -2.06736e-014 0
lhumerus 5.11621 -26.6249 41.6422
lradius 33.8272
lwrist 26.582
lhand -20.7879 -24.6207
lfingers 7.12502
lthumb 5.57917 5.28588
rfemur -107.973 -42.3646 20.976
rtibia 152.645
rfoot -26.0228 17.4011
rtoes 4.95552
lfemur 28.1214 66.0376 96.6213
ltibia 148.2
lfoot 12.818 -71.0471
ltoes 22.475
704
root 4.65952 6.72771 -0.0721703 41.0108 63.6176 -302.636
lowerback 37.6595 -4.72348 1.39757
upperback 12.906 -3.62544 2.13857
thorax -4.15393 -1.11354 2.75175
lowerneck -11.3104 3.54098 3.22294
upperneck 3.64822 5.79039 -17.1512
head 3.61043 2.30431 -5.41976
rclavicle 3.97569e-014 -9.85972e-014
rhumerus -168.098 -36.4765 123.802
rradius 13.6495
rwrist 126.433
rhand -11.6187 37.5535
rfingers 7.12502
rthumb 14.4244 8.07475
lclavicle 3.97569e-014 -9.85972e-014
lhumerus 6.19607 -26.9282 40.5441
lradius 34.2984
lwrist 26.9017
lhand -20.3419 -24.9045
lfingers 7.12502
lthumb 6.0097 4.9903
rfemur -108.139 -43.4565 21.1597
rtibia 153.092
rfoot -26.1036 17.9944
rtoes 4.72506
lfemur 29.2907 64.7198 99.4032
ltibia 148.878
lfoot 17.6754 -71.648
ltoes 25.3783
